solid Default
  facet normal 1.000000e+00 0.000000e+00 0.000000e+00
    outer loop
      vertex 5.482500e+01 8.458474e+00 3.789330e-16
      vertex 5.482500e+01 4.627875e+00 1.075000e+00
      vertex 5.482500e+01 4.627875e+00 9.473325e-17
    endloop
  endfacet
  facet normal 1.000000e+00 0.000000e+00 0.000000e+00
    outer loop
      vertex 5.482500e+01 4.627875e+00 1.075000e+00
      vertex 5.482500e+01 8.458474e+00 3.789330e-16
      vertex 5.482500e+01 8.458474e+00 1.075000e+00
    endloop
  endfacet
  facet normal 1.751532e-16 1.000000e+00 2.819966e-15
    outer loop
      vertex 5.482500e+01 4.627875e+00 1.075000e+00
      vertex 7.213250e+01 4.627875e+00 9.473325e-17
      vertex 5.482500e+01 4.627875e+00 9.473325e-17
    endloop
  endfacet
  facet normal 1.751532e-16 1.000000e+00 2.819966e-15
    outer loop
      vertex 7.213250e+01 4.627875e+00 9.473325e-17
      vertex 5.482500e+01 4.627875e+00 1.075000e+00
      vertex 7.213250e+01 4.627875e+00 1.075000e+00
    endloop
  endfacet
  facet normal 1.000000e+00 0.000000e+00 0.000000e+00
    outer loop
      vertex 7.213250e+01 4.627875e+00 9.473325e-17
      vertex 7.213250e+01 1.156969e+00 1.075000e+00
      vertex 7.213250e+01 1.156969e+00 9.473325e-17
    endloop
  endfacet
  facet normal 1.000000e+00 0.000000e+00 0.000000e+00
    outer loop
      vertex 7.213250e+01 1.156969e+00 1.075000e+00
      vertex 7.213250e+01 4.627875e+00 9.473325e-17
      vertex 7.213250e+01 4.627875e+00 1.075000e+00
    endloop
  endfacet
  facet normal 1.751532e-16 -1.000000e+00 -2.819966e-15
    outer loop
      vertex 7.213250e+01 -4.627876e+00 1.075000e+00
      vertex 5.482500e+01 -4.627876e+00 9.473325e-17
      vertex 7.213250e+01 -4.627876e+00 9.473325e-17
    endloop
  endfacet
  facet normal 1.751532e-16 -1.000000e+00 -2.819966e-15
    outer loop
      vertex 5.482500e+01 -4.627876e+00 9.473325e-17
      vertex 7.213250e+01 -4.627876e+00 1.075000e+00
      vertex 5.482500e+01 -4.627876e+00 1.075000e+00
    endloop
  endfacet
  facet normal 1.000000e+00 0.000000e+00 0.000000e+00
    outer loop
      vertex 5.482500e+01 -4.627876e+00 9.473325e-17
      vertex 5.482500e+01 -8.458474e+00 1.075000e+00
      vertex 5.482500e+01 -8.458474e+00 4.340641e-15
    endloop
  endfacet
  facet normal 1.000000e+00 0.000000e+00 0.000000e+00
    outer loop
      vertex 5.482500e+01 -8.458474e+00 1.075000e+00
      vertex 5.482500e+01 -4.627876e+00 9.473325e-17
      vertex 5.482500e+01 -4.627876e+00 1.075000e+00
    endloop
  endfacet
  facet normal 7.528995e-19 -1.397122e-16 -1.000000e+00
    outer loop
      vertex -5.482500e+01 4.627875e+00 0.000000e+00
      vertex -7.213250e+01 1.156969e+00 0.000000e+00
      vertex -7.213250e+01 4.627875e+00 0.000000e+00
    endloop
  endfacet
  facet normal 7.528995e-19 -1.397122e-16 -1.000000e+00
    outer loop
      vertex -7.213250e+01 1.156969e+00 0.000000e+00
      vertex -5.482500e+01 4.627875e+00 0.000000e+00
      vertex -5.482500e+01 1.156969e+00 0.000000e+00
    endloop
  endfacet
  facet normal 7.528995e-19 -1.397122e-16 -1.000000e+00
    outer loop
      vertex -5.482500e+01 1.156969e+00 0.000000e+00
      vertex -5.482500e+01 4.627875e+00 0.000000e+00
      vertex -5.482500e+01 -1.156969e+00 0.000000e+00
    endloop
  endfacet
  facet normal 7.528995e-19 -1.397122e-16 -1.000000e+00
    outer loop
      vertex 5.482500e+01 8.458474e+00 3.789330e-16
      vertex -5.482500e+01 4.627875e+00 0.000000e+00
      vertex -5.482500e+01 8.458474e+00 3.789330e-16
    endloop
  endfacet
  facet normal 7.528995e-19 -1.397122e-16 -1.000000e+00
    outer loop
      vertex -5.482500e+01 4.627875e+00 0.000000e+00
      vertex 5.482500e+01 8.458474e+00 3.789330e-16
      vertex -5.482500e+01 -4.627876e+00 0.000000e+00
    endloop
  endfacet
  facet normal 7.528995e-19 -1.397122e-16 -1.000000e+00
    outer loop
      vertex 7.213250e+01 4.627875e+00 9.473325e-17
      vertex 5.482500e+01 1.156969e+00 9.473325e-17
      vertex 5.482500e+01 4.627875e+00 9.473325e-17
    endloop
  endfacet
  facet normal 7.528995e-19 -1.397122e-16 -1.000000e+00
    outer loop
      vertex 5.482500e+01 1.156969e+00 9.473325e-17
      vertex 7.213250e+01 4.627875e+00 9.473325e-17
      vertex 7.213250e+01 1.156969e+00 9.473325e-17
    endloop
  endfacet
  facet normal 7.528995e-19 -1.397122e-16 -1.000000e+00
    outer loop
      vertex 7.213250e+01 -1.156969e+00 9.473325e-17
      vertex 5.482500e+01 -4.627876e+00 9.473325e-17
      vertex 5.482500e+01 -1.156969e+00 9.473325e-17
    endloop
  endfacet
  facet normal 7.528995e-19 -1.397122e-16 -1.000000e+00
    outer loop
      vertex 5.482500e+01 -4.627876e+00 9.473325e-17
      vertex 7.213250e+01 -1.156969e+00 9.473325e-17
      vertex 7.213250e+01 -4.627876e+00 9.473325e-17
    endloop
  endfacet
  facet normal 7.528995e-19 -1.397122e-16 -1.000000e+00
    outer loop
      vertex -5.482500e+01 -4.627876e+00 0.000000e+00
      vertex 5.482500e+01 -8.458474e+00 4.340641e-15
      vertex -5.482500e+01 -8.458474e+00 4.151174e-15
    endloop
  endfacet
  facet normal 7.528995e-19 -1.397122e-16 -1.000000e+00
    outer loop
      vertex 5.482500e+01 -8.458474e+00 4.340641e-15
      vertex -5.482500e+01 -4.627876e+00 0.000000e+00
      vertex 5.482500e+01 8.458474e+00 3.789330e-16
    endloop
  endfacet
  facet normal 7.528995e-19 -1.397122e-16 -1.000000e+00
    outer loop
      vertex 5.482500e+01 -8.458474e+00 4.340641e-15
      vertex 5.482500e+01 8.458474e+00 3.789330e-16
      vertex 5.482500e+01 4.627875e+00 9.473325e-17
    endloop
  endfacet
  facet normal 7.528995e-19 -1.397122e-16 -1.000000e+00
    outer loop
      vertex 5.482500e+01 -8.458474e+00 4.340641e-15
      vertex 5.482500e+01 4.627875e+00 9.473325e-17
      vertex 5.482500e+01 1.156969e+00 9.473325e-17
    endloop
  endfacet
  facet normal 7.528995e-19 -1.397122e-16 -1.000000e+00
    outer loop
      vertex 5.482500e+01 -8.458474e+00 4.340641e-15
      vertex 5.482500e+01 1.156969e+00 9.473325e-17
      vertex 5.482500e+01 -1.156969e+00 9.473325e-17
    endloop
  endfacet
  facet normal 7.528995e-19 -1.397122e-16 -1.000000e+00
    outer loop
      vertex 5.482500e+01 -8.458474e+00 4.340641e-15
      vertex 5.482500e+01 -1.156969e+00 9.473325e-17
      vertex 5.482500e+01 -4.627876e+00 9.473325e-17
    endloop
  endfacet
  facet normal 7.528995e-19 -1.397122e-16 -1.000000e+00
    outer loop
      vertex -5.482500e+01 -1.156969e+00 0.000000e+00
      vertex -7.213250e+01 -4.627876e+00 0.000000e+00
      vertex -7.213250e+01 -1.156969e+00 0.000000e+00
    endloop
  endfacet
  facet normal 7.528995e-19 -1.397122e-16 -1.000000e+00
    outer loop
      vertex -7.213250e+01 -4.627876e+00 0.000000e+00
      vertex -5.482500e+01 -1.156969e+00 0.000000e+00
      vertex -5.482500e+01 -4.627876e+00 0.000000e+00
    endloop
  endfacet
  facet normal 7.528995e-19 -1.397122e-16 -1.000000e+00
    outer loop
      vertex -5.482500e+01 -4.627876e+00 0.000000e+00
      vertex -5.482500e+01 -1.156969e+00 0.000000e+00
      vertex -5.482500e+01 4.627875e+00 0.000000e+00
    endloop
  endfacet
  facet normal 1.000000e+00 0.000000e+00 0.000000e+00
    outer loop
      vertex 7.213250e+01 -4.627876e+00 9.473325e-17
      vertex 7.213250e+01 -1.156969e+00 1.075000e+00
      vertex 7.213250e+01 -4.627876e+00 1.075000e+00
    endloop
  endfacet
  facet normal 1.000000e+00 0.000000e+00 0.000000e+00
    outer loop
      vertex 7.213250e+01 -1.156969e+00 1.075000e+00
      vertex 7.213250e+01 -4.627876e+00 9.473325e-17
      vertex 7.213250e+01 -1.156969e+00 9.473325e-17
    endloop
  endfacet
  facet normal 0.000000e+00 1.000000e+00 0.000000e+00
    outer loop
      vertex 5.482500e+01 -1.156969e+00 1.075000e+00
      vertex 7.213250e+01 -1.156969e+00 9.473325e-17
      vertex 5.482500e+01 -1.156969e+00 9.473325e-17
    endloop
  endfacet
  facet normal 0.000000e+00 1.000000e+00 0.000000e+00
    outer loop
      vertex 7.213250e+01 -1.156969e+00 9.473325e-17
      vertex 5.482500e+01 -1.156969e+00 1.075000e+00
      vertex 7.213250e+01 -1.156969e+00 1.075000e+00
    endloop
  endfacet
  facet normal 0.000000e+00 -1.000000e+00 0.000000e+00
    outer loop
      vertex 7.213250e+01 1.156969e+00 1.075000e+00
      vertex 5.482500e+01 1.156969e+00 9.473325e-17
      vertex 7.213250e+01 1.156969e+00 9.473325e-17
    endloop
  endfacet
  facet normal 0.000000e+00 -1.000000e+00 0.000000e+00
    outer loop
      vertex 5.482500e+01 1.156969e+00 9.473325e-17
      vertex 7.213250e+01 1.156969e+00 1.075000e+00
      vertex 5.482500e+01 1.156969e+00 1.075000e+00
    endloop
  endfacet
  facet normal 1.000000e+00 0.000000e+00 0.000000e+00
    outer loop
      vertex 5.482500e+01 1.156969e+00 9.473325e-17
      vertex 5.482500e+01 -1.156969e+00 1.075000e+00
      vertex 5.482500e+01 -1.156969e+00 9.473325e-17
    endloop
  endfacet
  facet normal 1.000000e+00 0.000000e+00 0.000000e+00
    outer loop
      vertex 5.482500e+01 -1.156969e+00 1.075000e+00
      vertex 5.482500e+01 1.156969e+00 9.473325e-17
      vertex 5.482500e+01 1.156969e+00 1.075000e+00
    endloop
  endfacet
  facet normal -1.000000e+00 1.144222e-30 5.522369e-32
    outer loop
      vertex -5.482500e+01 1.156969e+00 1.075000e+00
      vertex -5.482500e+01 -1.156969e+00 0.000000e+00
      vertex -5.482500e+01 -1.156969e+00 1.075000e+00
    endloop
  endfacet
  facet normal -1.000000e+00 1.144222e-30 5.522369e-32
    outer loop
      vertex -5.482500e+01 -1.156969e+00 0.000000e+00
      vertex -5.482500e+01 1.156969e+00 1.075000e+00
      vertex -5.482500e+01 1.156969e+00 0.000000e+00
    endloop
  endfacet
  facet normal -7.006127e-16 -1.000000e+00 -3.920539e-31
    outer loop
      vertex -5.482500e+01 -4.627876e+00 1.075000e+00
      vertex -7.213250e+01 -4.627876e+00 0.000000e+00
      vertex -5.482500e+01 -4.627876e+00 0.000000e+00
    endloop
  endfacet
  facet normal -7.006127e-16 -1.000000e+00 -3.920539e-31
    outer loop
      vertex -7.213250e+01 -4.627876e+00 0.000000e+00
      vertex -5.482500e+01 -4.627876e+00 1.075000e+00
      vertex -7.213250e+01 -4.627876e+00 1.075000e+00
    endloop
  endfacet
  facet normal -1.000000e+00 -3.743111e-16 1.307611e-31
    outer loop
      vertex -7.213250e+01 -1.156969e+00 1.075000e+00
      vertex -7.213250e+01 -4.627876e+00 0.000000e+00
      vertex -7.213250e+01 -4.627876e+00 1.075000e+00
    endloop
  endfacet
  facet normal -1.000000e+00 -3.743111e-16 1.307611e-31
    outer loop
      vertex -7.213250e+01 -4.627876e+00 0.000000e+00
      vertex -7.213250e+01 -1.156969e+00 1.075000e+00
      vertex -7.213250e+01 -1.156969e+00 0.000000e+00
    endloop
  endfacet
  facet normal -1.000000e+00 -7.913813e-16 -5.416643e-32
    outer loop
      vertex -5.482500e+01 8.458474e+00 1.075000e+00
      vertex -5.482500e+01 4.627875e+00 0.000000e+00
      vertex -5.482500e+01 4.627875e+00 1.075000e+00
    endloop
  endfacet
  facet normal -1.000000e+00 -7.913813e-16 -5.416643e-32
    outer loop
      vertex -5.482500e+01 4.627875e+00 0.000000e+00
      vertex -5.482500e+01 8.458474e+00 1.075000e+00
      vertex -5.482500e+01 8.458474e+00 3.789330e-16
    endloop
  endfacet
  facet normal -3.503064e-16 1.000000e+00 -8.459898e-15
    outer loop
      vertex -7.213250e+01 4.627875e+00 1.075000e+00
      vertex -5.482500e+01 4.627875e+00 0.000000e+00
      vertex -7.213250e+01 4.627875e+00 0.000000e+00
    endloop
  endfacet
  facet normal -3.503064e-16 1.000000e+00 -8.459898e-15
    outer loop
      vertex -5.482500e+01 4.627875e+00 0.000000e+00
      vertex -7.213250e+01 4.627875e+00 1.075000e+00
      vertex -5.482500e+01 4.627875e+00 1.075000e+00
    endloop
  endfacet
  facet normal -1.000000e+00 3.165525e-15 3.213337e-31
    outer loop
      vertex -5.482500e+01 -4.627876e+00 1.075000e+00
      vertex -5.482500e+01 -8.458474e+00 4.151174e-15
      vertex -5.482500e+01 -8.458474e+00 1.075000e+00
    endloop
  endfacet
  facet normal -1.000000e+00 3.165525e-15 3.213337e-31
    outer loop
      vertex -5.482500e+01 -8.458474e+00 4.151174e-15
      vertex -5.482500e+01 -4.627876e+00 1.075000e+00
      vertex -5.482500e+01 -4.627876e+00 0.000000e+00
    endloop
  endfacet
  facet normal 1.226072e-15 1.000000e+00 0.000000e+00
    outer loop
      vertex -7.213250e+01 -1.156969e+00 1.075000e+00
      vertex -5.482500e+01 -1.156969e+00 0.000000e+00
      vertex -7.213250e+01 -1.156969e+00 0.000000e+00
    endloop
  endfacet
  facet normal 1.226072e-15 1.000000e+00 0.000000e+00
    outer loop
      vertex -5.482500e+01 -1.156969e+00 0.000000e+00
      vertex -7.213250e+01 -1.156969e+00 1.075000e+00
      vertex -5.482500e+01 -1.156969e+00 1.075000e+00
    endloop
  endfacet
  facet normal 3.503064e-16 -1.000000e+00 -1.960269e-31
    outer loop
      vertex -5.482500e+01 1.156969e+00 1.075000e+00
      vertex -7.213250e+01 1.156969e+00 0.000000e+00
      vertex -5.482500e+01 1.156969e+00 0.000000e+00
    endloop
  endfacet
  facet normal 3.503064e-16 -1.000000e+00 -1.960269e-31
    outer loop
      vertex -7.213250e+01 1.156969e+00 0.000000e+00
      vertex -5.482500e+01 1.156969e+00 1.075000e+00
      vertex -7.213250e+01 1.156969e+00 1.075000e+00
    endloop
  endfacet
  facet normal -1.000000e+00 -1.310089e-15 -1.879978e-15
    outer loop
      vertex -7.213250e+01 4.627875e+00 1.075000e+00
      vertex -7.213250e+01 1.156969e+00 0.000000e+00
      vertex -7.213250e+01 1.156969e+00 1.075000e+00
    endloop
  endfacet
  facet normal -1.000000e+00 -1.310089e-15 -1.879978e-15
    outer loop
      vertex -7.213250e+01 1.156969e+00 0.000000e+00
      vertex -7.213250e+01 4.627875e+00 1.075000e+00
      vertex -7.213250e+01 4.627875e+00 0.000000e+00
    endloop
  endfacet
  facet normal -9.578690e-19 1.063419e-15 1.000000e+00
    outer loop
      vertex 4.945000e+01 -8.458474e+00 1.075000e+00
      vertex -4.945000e+01 -4.627876e+00 1.075000e+00
      vertex -4.945000e+01 -8.458474e+00 1.075000e+00
    endloop
  endfacet
  facet normal -9.578690e-19 1.063419e-15 1.000000e+00
    outer loop
      vertex -4.945000e+01 -4.627876e+00 1.075000e+00
      vertex 4.945000e+01 -8.458474e+00 1.075000e+00
      vertex 4.945000e+01 -4.627876e+00 1.075000e+00
    endloop
  endfacet
  facet normal 1.000000e+00 -7.961372e-15 -1.950447e-14
    outer loop
      vertex 4.945000e+01 8.458474e+00 1.075000e+00
      vertex 4.945000e+01 4.627875e+00 3.225000e+00
      vertex 4.945000e+01 4.627875e+00 1.075000e+00
    endloop
  endfacet
  facet normal 1.000000e+00 -7.961372e-15 -1.950447e-14
    outer loop
      vertex 4.945000e+01 4.627875e+00 3.225000e+00
      vertex 4.945000e+01 8.458474e+00 1.075000e+00
      vertex 4.945000e+01 7.094999e+00 3.225000e+00
    endloop
  endfacet
  facet normal 1.000000e+00 -7.961372e-15 -1.950447e-14
    outer loop
      vertex 4.945000e+01 7.094999e+00 3.225000e+00
      vertex 4.945000e+01 8.458474e+00 1.075000e+00
      vertex 4.945000e+01 7.094999e+00 4.300000e+00
    endloop
  endfacet
  facet normal 1.000000e+00 -7.961372e-15 -1.950447e-14
    outer loop
      vertex 4.945000e+01 7.094999e+00 4.300000e+00
      vertex 4.945000e+01 6.181250e+00 5.375000e+00
      vertex 4.945000e+01 6.181250e+00 4.300000e+00
    endloop
  endfacet
  facet normal 1.000000e+00 -7.961372e-15 -1.950447e-14
    outer loop
      vertex 4.945000e+01 6.181250e+00 5.375000e+00
      vertex 4.945000e+01 7.094999e+00 4.300000e+00
      vertex 4.945000e+01 8.458474e+00 5.375000e+00
    endloop
  endfacet
  facet normal 1.000000e+00 -7.961372e-15 -1.950447e-14
    outer loop
      vertex 4.945000e+01 8.458474e+00 5.375000e+00
      vertex 4.945000e+01 7.094999e+00 4.300000e+00
      vertex 4.945000e+01 8.458474e+00 1.075000e+00
    endloop
  endfacet
  facet normal 1.000000e+00 1.294079e-14 -2.789102e-15
    outer loop
      vertex 4.945000e+01 -8.458474e+00 1.075000e+00
      vertex 4.945000e+01 -7.095000e+00 3.225000e+00
      vertex 4.945000e+01 -8.458474e+00 5.375000e+00
    endloop
  endfacet
  facet normal 1.000000e+00 1.294079e-14 -2.789102e-15
    outer loop
      vertex 4.945000e+01 -7.095000e+00 3.225000e+00
      vertex 4.945000e+01 -8.458474e+00 1.075000e+00
      vertex 4.945000e+01 -4.627876e+00 1.075000e+00
    endloop
  endfacet
  facet normal 1.000000e+00 1.294079e-14 -2.789102e-15
    outer loop
      vertex 4.945000e+01 -8.458474e+00 5.375000e+00
      vertex 4.945000e+01 -7.095000e+00 3.225000e+00
      vertex 4.945000e+01 -7.095000e+00 4.300000e+00
    endloop
  endfacet
  facet normal 1.000000e+00 1.294079e-14 -2.789102e-15
    outer loop
      vertex 4.945000e+01 -7.095000e+00 3.225000e+00
      vertex 4.945000e+01 -4.627876e+00 1.075000e+00
      vertex 4.945000e+01 -4.627876e+00 3.225000e+00
    endloop
  endfacet
  facet normal 1.000000e+00 1.294079e-14 -2.789102e-15
    outer loop
      vertex 4.945000e+01 -7.095000e+00 4.300000e+00
      vertex 4.945000e+01 -6.181250e+00 5.375000e+00
      vertex 4.945000e+01 -8.458474e+00 5.375000e+00
    endloop
  endfacet
  facet normal 1.000000e+00 1.294079e-14 -2.789102e-15
    outer loop
      vertex 4.945000e+01 -6.181250e+00 5.375000e+00
      vertex 4.945000e+01 -7.095000e+00 4.300000e+00
      vertex 4.945000e+01 -6.181250e+00 4.300000e+00
    endloop
  endfacet
  facet normal -1.000000e+00 1.655062e-15 3.296909e-14
    outer loop
      vertex -4.945000e+01 8.458474e+00 5.375000e+00
      vertex -4.945000e+01 6.181250e+00 4.300000e+00
      vertex -4.945000e+01 6.181250e+00 5.375000e+00
    endloop
  endfacet
  facet normal -1.000000e+00 1.655062e-15 3.296909e-14
    outer loop
      vertex -4.945000e+01 6.181250e+00 4.300000e+00
      vertex -4.945000e+01 8.458474e+00 5.375000e+00
      vertex -4.945000e+01 7.094999e+00 4.300000e+00
    endloop
  endfacet
  facet normal -1.000000e+00 1.655062e-15 3.296909e-14
    outer loop
      vertex -4.945000e+01 7.094999e+00 4.300000e+00
      vertex -4.945000e+01 8.458474e+00 5.375000e+00
      vertex -4.945000e+01 7.094999e+00 3.225000e+00
    endloop
  endfacet
  facet normal -1.000000e+00 1.655062e-15 3.296909e-14
    outer loop
      vertex -4.945000e+01 7.094999e+00 3.225000e+00
      vertex -4.945000e+01 8.458474e+00 5.375000e+00
      vertex -4.945000e+01 8.458474e+00 1.075000e+00
    endloop
  endfacet
  facet normal -1.000000e+00 1.655062e-15 3.296909e-14
    outer loop
      vertex -4.945000e+01 7.094999e+00 3.225000e+00
      vertex -4.945000e+01 4.627875e+00 1.075000e+00
      vertex -4.945000e+01 4.627875e+00 3.225000e+00
    endloop
  endfacet
  facet normal -1.000000e+00 1.655062e-15 3.296909e-14
    outer loop
      vertex -4.945000e+01 4.627875e+00 1.075000e+00
      vertex -4.945000e+01 7.094999e+00 3.225000e+00
      vertex -4.945000e+01 8.458474e+00 1.075000e+00
    endloop
  endfacet
  facet normal 1.794388e-15 1.000000e+00 -1.022238e-13
    outer loop
      vertex -4.945000e+01 8.458474e+00 5.375000e+00
      vertex 4.945000e+01 8.458474e+00 1.075000e+00
      vertex -4.945000e+01 8.458474e+00 1.075000e+00
    endloop
  endfacet
  facet normal 1.794388e-15 1.000000e+00 -1.022238e-13
    outer loop
      vertex 4.945000e+01 8.458474e+00 1.075000e+00
      vertex -4.945000e+01 8.458474e+00 5.375000e+00
      vertex 4.945000e+01 8.458474e+00 5.375000e+00
    endloop
  endfacet
  facet normal 1.794388e-15 1.000000e+00 -1.022238e-13
    outer loop
      vertex -5.482500e+01 8.458474e+00 1.075000e+00
      vertex 5.482500e+01 8.458474e+00 3.789330e-16
      vertex -5.482500e+01 8.458474e+00 3.789330e-16
    endloop
  endfacet
  facet normal 1.794388e-15 1.000000e+00 -1.022238e-13
    outer loop
      vertex 5.482500e+01 8.458474e+00 3.789330e-16
      vertex -5.482500e+01 8.458474e+00 1.075000e+00
      vertex -4.945000e+01 8.458474e+00 1.075000e+00
    endloop
  endfacet
  facet normal 1.794388e-15 1.000000e+00 -1.022238e-13
    outer loop
      vertex 5.482500e+01 8.458474e+00 3.789330e-16
      vertex -4.945000e+01 8.458474e+00 1.075000e+00
      vertex 5.482500e+01 8.458474e+00 1.075000e+00
    endloop
  endfacet
  facet normal 1.794388e-15 1.000000e+00 -1.022238e-13
    outer loop
      vertex 5.482500e+01 8.458474e+00 1.075000e+00
      vertex -4.945000e+01 8.458474e+00 1.075000e+00
      vertex 4.945000e+01 8.458474e+00 1.075000e+00
    endloop
  endfacet
  facet normal 1.950447e-14 0.000000e+00 1.000000e+00
    outer loop
      vertex 4.945000e+01 6.181250e+00 5.375000e+00
      vertex -4.945000e+01 8.458474e+00 5.375000e+00
      vertex -4.945000e+01 6.181250e+00 5.375000e+00
    endloop
  endfacet
  facet normal 1.950447e-14 0.000000e+00 1.000000e+00
    outer loop
      vertex -4.945000e+01 8.458474e+00 5.375000e+00
      vertex 4.945000e+01 6.181250e+00 5.375000e+00
      vertex 4.945000e+01 8.458474e+00 5.375000e+00
    endloop
  endfacet
  facet normal -8.000122e-15 -1.000000e+00 1.520904e-28
    outer loop
      vertex 4.945000e+01 7.094999e+00 4.300000e+00
      vertex -4.945000e+01 7.094999e+00 3.225000e+00
      vertex 4.945000e+01 7.094999e+00 3.225000e+00
    endloop
  endfacet
  facet normal -8.000122e-15 -1.000000e+00 1.520904e-28
    outer loop
      vertex -4.945000e+01 7.094999e+00 3.225000e+00
      vertex 4.945000e+01 7.094999e+00 4.300000e+00
      vertex -4.945000e+01 7.094999e+00 4.300000e+00
    endloop
  endfacet
  facet normal 9.751107e-15 -3.938123e-13 1.000000e+00
    outer loop
      vertex 4.945000e+01 4.627875e+00 3.225000e+00
      vertex -4.945000e+01 7.094999e+00 3.225000e+00
      vertex -4.945000e+01 4.627875e+00 3.225000e+00
    endloop
  endfacet
  facet normal 9.751107e-15 -3.938123e-13 1.000000e+00
    outer loop
      vertex -4.945000e+01 7.094999e+00 3.225000e+00
      vertex 4.945000e+01 4.627875e+00 3.225000e+00
      vertex 4.945000e+01 7.094999e+00 3.225000e+00
    endloop
  endfacet
  facet normal 0.000000e+00 -1.000000e+00 0.000000e+00
    outer loop
      vertex 4.945000e+01 4.627875e+00 3.225000e+00
      vertex -4.945000e+01 4.627875e+00 1.075000e+00
      vertex 4.945000e+01 4.627875e+00 1.075000e+00
    endloop
  endfacet
  facet normal 0.000000e+00 -1.000000e+00 0.000000e+00
    outer loop
      vertex -4.945000e+01 4.627875e+00 1.075000e+00
      vertex 4.945000e+01 4.627875e+00 3.225000e+00
      vertex -4.945000e+01 4.627875e+00 3.225000e+00
    endloop
  endfacet
  facet normal -1.000000e+00 -6.634477e-15 1.625373e-14
    outer loop
      vertex -4.945000e+01 -8.458474e+00 5.375000e+00
      vertex -4.945000e+01 -7.095000e+00 4.300000e+00
      vertex -4.945000e+01 -8.458474e+00 1.075000e+00
    endloop
  endfacet
  facet normal -1.000000e+00 -6.634477e-15 1.625373e-14
    outer loop
      vertex -4.945000e+01 -7.095000e+00 4.300000e+00
      vertex -4.945000e+01 -8.458474e+00 5.375000e+00
      vertex -4.945000e+01 -6.181250e+00 5.375000e+00
    endloop
  endfacet
  facet normal -1.000000e+00 -6.634477e-15 1.625373e-14
    outer loop
      vertex -4.945000e+01 -7.095000e+00 4.300000e+00
      vertex -4.945000e+01 -6.181250e+00 5.375000e+00
      vertex -4.945000e+01 -6.181250e+00 4.300000e+00
    endloop
  endfacet
  facet normal -1.000000e+00 -6.634477e-15 1.625373e-14
    outer loop
      vertex -4.945000e+01 -8.458474e+00 1.075000e+00
      vertex -4.945000e+01 -7.095000e+00 3.225000e+00
      vertex -4.945000e+01 -4.627876e+00 1.075000e+00
    endloop
  endfacet
  facet normal -1.000000e+00 -6.634477e-15 1.625373e-14
    outer loop
      vertex -4.945000e+01 -7.095000e+00 3.225000e+00
      vertex -4.945000e+01 -8.458474e+00 1.075000e+00
      vertex -4.945000e+01 -7.095000e+00 4.300000e+00
    endloop
  endfacet
  facet normal -1.000000e+00 -6.634477e-15 1.625373e-14
    outer loop
      vertex -4.945000e+01 -4.627876e+00 1.075000e+00
      vertex -4.945000e+01 -7.095000e+00 3.225000e+00
      vertex -4.945000e+01 -4.627876e+00 3.225000e+00
    endloop
  endfacet
  facet normal 6.481899e-15 -1.000000e+00 -1.980733e-13
    outer loop
      vertex 4.945000e+01 -8.458474e+00 1.075000e+00
      vertex -4.945000e+01 -8.458474e+00 5.375000e+00
      vertex -4.945000e+01 -8.458474e+00 1.075000e+00
    endloop
  endfacet
  facet normal 6.481899e-15 -1.000000e+00 -1.980733e-13
    outer loop
      vertex -4.945000e+01 -8.458474e+00 5.375000e+00
      vertex 4.945000e+01 -8.458474e+00 1.075000e+00
      vertex 4.945000e+01 -8.458474e+00 5.375000e+00
    endloop
  endfacet
  facet normal 0.000000e+00 1.000000e+00 0.000000e+00
    outer loop
      vertex -4.945000e+01 -4.627876e+00 3.225000e+00
      vertex 4.945000e+01 -4.627876e+00 1.075000e+00
      vertex -4.945000e+01 -4.627876e+00 1.075000e+00
    endloop
  endfacet
  facet normal 0.000000e+00 1.000000e+00 0.000000e+00
    outer loop
      vertex 4.945000e+01 -4.627876e+00 1.075000e+00
      vertex -4.945000e+01 -4.627876e+00 3.225000e+00
      vertex 4.945000e+01 -4.627876e+00 3.225000e+00
    endloop
  endfacet
  facet normal 1.398489e-15 5.897969e-14 1.000000e+00
    outer loop
      vertex -4.945000e+01 -7.095000e+00 3.225000e+00
      vertex 4.945000e+01 -4.627876e+00 3.225000e+00
      vertex -4.945000e+01 -4.627876e+00 3.225000e+00
    endloop
  endfacet
  facet normal 1.398489e-15 5.897969e-14 1.000000e+00
    outer loop
      vertex 4.945000e+01 -4.627876e+00 3.225000e+00
      vertex -4.945000e+01 -7.095000e+00 3.225000e+00
      vertex 4.945000e+01 -7.095000e+00 3.225000e+00
    endloop
  endfacet
  facet normal 2.789102e-15 0.000000e+00 1.000000e+00
    outer loop
      vertex -4.945000e+01 -8.458474e+00 5.375000e+00
      vertex 4.945000e+01 -6.181250e+00 5.375000e+00
      vertex -4.945000e+01 -6.181250e+00 5.375000e+00
    endloop
  endfacet
  facet normal 2.789102e-15 0.000000e+00 1.000000e+00
    outer loop
      vertex 4.945000e+01 -6.181250e+00 5.375000e+00
      vertex -4.945000e+01 -8.458474e+00 5.375000e+00
      vertex 4.945000e+01 -8.458474e+00 5.375000e+00
    endloop
  endfacet
  facet normal -1.395587e-18 1.484385e-16 1.000000e+00
    outer loop
      vertex -5.482500e+01 -4.627876e+00 1.075000e+00
      vertex -7.213250e+01 -1.156969e+00 1.075000e+00
      vertex -7.213250e+01 -4.627876e+00 1.075000e+00
    endloop
  endfacet
  facet normal -1.395587e-18 1.484385e-16 1.000000e+00
    outer loop
      vertex -7.213250e+01 -1.156969e+00 1.075000e+00
      vertex -5.482500e+01 -4.627876e+00 1.075000e+00
      vertex -5.482500e+01 -1.156969e+00 1.075000e+00
    endloop
  endfacet
  facet normal -1.395587e-18 1.484385e-16 1.000000e+00
    outer loop
      vertex -5.482500e+01 -1.156969e+00 1.075000e+00
      vertex -5.482500e+01 -4.627876e+00 1.075000e+00
      vertex -5.482500e+01 1.156969e+00 1.075000e+00
    endloop
  endfacet
  facet normal -1.395587e-18 1.484385e-16 1.000000e+00
    outer loop
      vertex -5.482500e+01 1.156969e+00 1.075000e+00
      vertex -5.482500e+01 -4.627876e+00 1.075000e+00
      vertex -5.482500e+01 4.627875e+00 1.075000e+00
    endloop
  endfacet
  facet normal -1.395587e-18 1.484385e-16 1.000000e+00
    outer loop
      vertex -4.945000e+01 -8.458474e+00 1.075000e+00
      vertex -5.482500e+01 -4.627876e+00 1.075000e+00
      vertex -5.482500e+01 -8.458474e+00 1.075000e+00
    endloop
  endfacet
  facet normal -1.395587e-18 1.484385e-16 1.000000e+00
    outer loop
      vertex 7.213250e+01 -4.627876e+00 1.075000e+00
      vertex 5.482500e+01 -1.156969e+00 1.075000e+00
      vertex 5.482500e+01 -4.627876e+00 1.075000e+00
    endloop
  endfacet
  facet normal -1.395587e-18 1.484385e-16 1.000000e+00
    outer loop
      vertex 5.482500e+01 -1.156969e+00 1.075000e+00
      vertex 7.213250e+01 -4.627876e+00 1.075000e+00
      vertex 7.213250e+01 -1.156969e+00 1.075000e+00
    endloop
  endfacet
  facet normal -1.395587e-18 1.484385e-16 1.000000e+00
    outer loop
      vertex 7.213250e+01 1.156969e+00 1.075000e+00
      vertex 5.482500e+01 4.627875e+00 1.075000e+00
      vertex 5.482500e+01 1.156969e+00 1.075000e+00
    endloop
  endfacet
  facet normal -1.395587e-18 1.484385e-16 1.000000e+00
    outer loop
      vertex 5.482500e+01 4.627875e+00 1.075000e+00
      vertex 7.213250e+01 1.156969e+00 1.075000e+00
      vertex 7.213250e+01 4.627875e+00 1.075000e+00
    endloop
  endfacet
  facet normal -1.395587e-18 1.484385e-16 1.000000e+00
    outer loop
      vertex -5.482500e+01 4.627875e+00 1.075000e+00
      vertex -4.945000e+01 8.458474e+00 1.075000e+00
      vertex -5.482500e+01 8.458474e+00 1.075000e+00
    endloop
  endfacet
  facet normal -1.395587e-18 1.484385e-16 1.000000e+00
    outer loop
      vertex -4.945000e+01 8.458474e+00 1.075000e+00
      vertex -5.482500e+01 4.627875e+00 1.075000e+00
      vertex -5.482500e+01 -4.627876e+00 1.075000e+00
    endloop
  endfacet
  facet normal -1.395587e-18 1.484385e-16 1.000000e+00
    outer loop
      vertex -4.945000e+01 8.458474e+00 1.075000e+00
      vertex -5.482500e+01 -4.627876e+00 1.075000e+00
      vertex -4.945000e+01 -8.458474e+00 1.075000e+00
    endloop
  endfacet
  facet normal -1.395587e-18 1.484385e-16 1.000000e+00
    outer loop
      vertex -4.945000e+01 8.458474e+00 1.075000e+00
      vertex -4.945000e+01 -8.458474e+00 1.075000e+00
      vertex -4.945000e+01 -4.627876e+00 1.075000e+00
    endloop
  endfacet
  facet normal -1.395587e-18 1.484385e-16 1.000000e+00
    outer loop
      vertex -4.945000e+01 8.458474e+00 1.075000e+00
      vertex -4.945000e+01 -4.627876e+00 1.075000e+00
      vertex -4.945000e+01 4.627875e+00 1.075000e+00
    endloop
  endfacet
  facet normal -1.395587e-18 1.484385e-16 1.000000e+00
    outer loop
      vertex -4.945000e+01 4.627875e+00 1.075000e+00
      vertex -4.945000e+01 -4.627876e+00 1.075000e+00
      vertex 4.945000e+01 -4.627876e+00 1.075000e+00
    endloop
  endfacet
  facet normal -1.395587e-18 1.484385e-16 1.000000e+00
    outer loop
      vertex -4.945000e+01 4.627875e+00 1.075000e+00
      vertex 4.945000e+01 -4.627876e+00 1.075000e+00
      vertex 4.945000e+01 4.627875e+00 1.075000e+00
    endloop
  endfacet
  facet normal -1.395587e-18 1.484385e-16 1.000000e+00
    outer loop
      vertex 4.945000e+01 4.627875e+00 1.075000e+00
      vertex 4.945000e+01 -4.627876e+00 1.075000e+00
      vertex 4.945000e+01 -8.458474e+00 1.075000e+00
    endloop
  endfacet
  facet normal -1.395587e-18 1.484385e-16 1.000000e+00
    outer loop
      vertex 4.945000e+01 4.627875e+00 1.075000e+00
      vertex 4.945000e+01 -8.458474e+00 1.075000e+00
      vertex 5.482500e+01 -8.458474e+00 1.075000e+00
    endloop
  endfacet
  facet normal -1.395587e-18 1.484385e-16 1.000000e+00
    outer loop
      vertex 4.945000e+01 4.627875e+00 1.075000e+00
      vertex 5.482500e+01 -8.458474e+00 1.075000e+00
      vertex 4.945000e+01 8.458474e+00 1.075000e+00
    endloop
  endfacet
  facet normal -1.395587e-18 1.484385e-16 1.000000e+00
    outer loop
      vertex 4.945000e+01 8.458474e+00 1.075000e+00
      vertex 5.482500e+01 -8.458474e+00 1.075000e+00
      vertex 5.482500e+01 8.458474e+00 1.075000e+00
    endloop
  endfacet
  facet normal -1.395587e-18 1.484385e-16 1.000000e+00
    outer loop
      vertex 5.482500e+01 8.458474e+00 1.075000e+00
      vertex 5.482500e+01 -8.458474e+00 1.075000e+00
      vertex 5.482500e+01 -4.627876e+00 1.075000e+00
    endloop
  endfacet
  facet normal -1.395587e-18 1.484385e-16 1.000000e+00
    outer loop
      vertex 5.482500e+01 8.458474e+00 1.075000e+00
      vertex 5.482500e+01 -4.627876e+00 1.075000e+00
      vertex 5.482500e+01 -1.156969e+00 1.075000e+00
    endloop
  endfacet
  facet normal -1.395587e-18 1.484385e-16 1.000000e+00
    outer loop
      vertex 5.482500e+01 8.458474e+00 1.075000e+00
      vertex 5.482500e+01 -1.156969e+00 1.075000e+00
      vertex 5.482500e+01 1.156969e+00 1.075000e+00
    endloop
  endfacet
  facet normal -1.395587e-18 1.484385e-16 1.000000e+00
    outer loop
      vertex 5.482500e+01 8.458474e+00 1.075000e+00
      vertex 5.482500e+01 1.156969e+00 1.075000e+00
      vertex 5.482500e+01 4.627875e+00 1.075000e+00
    endloop
  endfacet
  facet normal -1.395587e-18 1.484385e-16 1.000000e+00
    outer loop
      vertex -7.213250e+01 1.156969e+00 1.075000e+00
      vertex -5.482500e+01 4.627875e+00 1.075000e+00
      vertex -7.213250e+01 4.627875e+00 1.075000e+00
    endloop
  endfacet
  facet normal -1.395587e-18 1.484385e-16 1.000000e+00
    outer loop
      vertex -5.482500e+01 4.627875e+00 1.075000e+00
      vertex -7.213250e+01 1.156969e+00 1.075000e+00
      vertex -5.482500e+01 1.156969e+00 1.075000e+00
    endloop
  endfacet
  facet normal 1.712384e-16 -1.000000e+00 5.904305e-15
    outer loop
      vertex 5.482500e+01 -8.458474e+00 1.075000e+00
      vertex -4.945000e+01 -8.458474e+00 1.075000e+00
      vertex 5.482500e+01 -8.458474e+00 4.340641e-15
    endloop
  endfacet
  facet normal 1.712384e-16 -1.000000e+00 5.904305e-15
    outer loop
      vertex -4.945000e+01 -8.458474e+00 1.075000e+00
      vertex 5.482500e+01 -8.458474e+00 1.075000e+00
      vertex 4.945000e+01 -8.458474e+00 1.075000e+00
    endloop
  endfacet
  facet normal 1.712384e-16 -1.000000e+00 5.904305e-15
    outer loop
      vertex 5.482500e+01 -8.458474e+00 4.340641e-15
      vertex -5.482500e+01 -8.458474e+00 1.075000e+00
      vertex -5.482500e+01 -8.458474e+00 4.151174e-15
    endloop
  endfacet
  facet normal 1.712384e-16 -1.000000e+00 5.904305e-15
    outer loop
      vertex -5.482500e+01 -8.458474e+00 1.075000e+00
      vertex 5.482500e+01 -8.458474e+00 4.340641e-15
      vertex -4.945000e+01 -8.458474e+00 1.075000e+00
    endloop
  endfacet
  facet normal -1.293889e-14 1.000000e+00 3.524958e-16
    outer loop
      vertex -4.945000e+01 -7.095000e+00 3.225000e+00
      vertex 4.945000e+01 -7.095000e+00 4.300000e+00
      vertex 4.945000e+01 -7.095000e+00 3.225000e+00
    endloop
  endfacet
  facet normal -1.293889e-14 1.000000e+00 3.524958e-16
    outer loop
      vertex 4.945000e+01 -7.095000e+00 4.300000e+00
      vertex -4.945000e+01 -7.095000e+00 3.225000e+00
      vertex -4.945000e+01 -7.095000e+00 4.300000e+00
    endloop
  endfacet
  facet normal -1.293889e-14 1.000000e+00 -3.524958e-16
    outer loop
      vertex -4.945000e+01 -6.181250e+00 4.300000e+00
      vertex 4.945000e+01 -6.181250e+00 5.375000e+00
      vertex 4.945000e+01 -6.181250e+00 4.300000e+00
    endloop
  endfacet
  facet normal -1.293889e-14 1.000000e+00 -3.524958e-16
    outer loop
      vertex 4.945000e+01 -6.181250e+00 5.375000e+00
      vertex -4.945000e+01 -6.181250e+00 4.300000e+00
      vertex -4.945000e+01 -6.181250e+00 5.375000e+00
    endloop
  endfacet
  facet normal -2.789314e-15 -3.524958e-16 -1.000000e+00
    outer loop
      vertex 4.945000e+01 -6.181250e+00 4.300000e+00
      vertex -4.945000e+01 -7.095000e+00 4.300000e+00
      vertex -4.945000e+01 -6.181250e+00 4.300000e+00
    endloop
  endfacet
  facet normal -2.789314e-15 -3.524958e-16 -1.000000e+00
    outer loop
      vertex -4.945000e+01 -7.095000e+00 4.300000e+00
      vertex 4.945000e+01 -6.181250e+00 4.300000e+00
      vertex 4.945000e+01 -7.095000e+00 4.300000e+00
    endloop
  endfacet
  facet normal -8.000122e-15 -1.000000e+00 4.643184e-29
    outer loop
      vertex 4.945000e+01 6.181250e+00 5.375000e+00
      vertex -4.945000e+01 6.181250e+00 4.300000e+00
      vertex 4.945000e+01 6.181250e+00 4.300000e+00
    endloop
  endfacet
  facet normal -8.000122e-15 -1.000000e+00 4.643184e-29
    outer loop
      vertex -4.945000e+01 6.181250e+00 4.300000e+00
      vertex 4.945000e+01 6.181250e+00 5.375000e+00
      vertex -4.945000e+01 6.181250e+00 5.375000e+00
    endloop
  endfacet
  facet normal -1.950221e-14 1.095883e-28 -1.000000e+00
    outer loop
      vertex -4.945000e+01 7.094999e+00 4.300000e+00
      vertex 4.945000e+01 6.181250e+00 4.300000e+00
      vertex -4.945000e+01 6.181250e+00 4.300000e+00
    endloop
  endfacet
  facet normal -1.950221e-14 1.095883e-28 -1.000000e+00
    outer loop
      vertex 4.945000e+01 6.181250e+00 4.300000e+00
      vertex -4.945000e+01 7.094999e+00 4.300000e+00
      vertex 4.945000e+01 7.094999e+00 4.300000e+00
    endloop
  endfacet
endsolid Default
